<svg width="158" height="42" viewBox="0 0 158 42" fill="none" xmlns="http://www.w3.org/2000/svg">
<g clip-path="url(#clip0_2727_6190)">
<mask id="mask0_2727_6190" style="mask-type:luminance" maskUnits="userSpaceOnUse" x="0" y="0" width="158" height="42">
<path d="M157.869 0.00109863H0.000549316V41.6405H157.869V0.00109863Z" fill="white"/>
</mask>
<g mask="url(#mask0_2727_6190)">
<path d="M91.8801 11.6897L100.961 8.3113L91.8801 4.73716V0.00109863L107.433 6.27795V10.1426L91.8801 16.4258V11.6897ZM5.99323 41.6405C2.70957 41.6405 0.000549316 39.9987 0.000549316 36.3298V36.134C0.000549316 31.6885 3.86517 30.1413 8.60123 30.1413H10.824V29.27C10.824 27.4323 10.0536 26.3715 8.1213 26.3715C6.38476 26.3715 5.51333 27.3376 5.4186 28.6889H0.581505C0.966704 24.6286 4.15565 22.6962 8.40547 22.6962C12.75 22.6962 15.9389 24.5339 15.9389 29.0741V41.249H11.0135V39.1209C10.0473 40.4849 8.40547 41.6405 5.99323 41.6405ZM10.824 35.1679V33.4313H8.79698C6.28372 33.4313 5.02708 34.107 5.02708 35.7489V35.9446C5.02708 37.2012 5.79748 38.0727 7.54036 38.0727C9.28322 38.0727 10.824 37.1003 10.824 35.1679ZM27.4381 41.6405C22.4116 41.6405 18.7427 38.5463 18.7427 32.3641V32.08C18.7427 25.8915 22.6073 22.6078 27.4381 22.6078C31.5932 22.6078 34.9716 24.7359 35.3632 29.4657H30.5323C30.2418 27.7291 29.2757 26.5672 27.5392 26.5672C25.4111 26.5672 23.8703 28.3038 23.8703 31.8778V32.4589C23.8703 36.1278 25.2216 37.7696 27.5392 37.7696C29.2757 37.7696 30.5323 36.5129 30.8228 34.4859H35.4578C35.1673 38.6473 32.3636 41.6405 27.4381 41.6405ZM46.3761 41.6405C41.3495 41.6405 37.6806 38.5463 37.6806 32.3641V32.08C37.6806 25.8978 41.5452 22.6141 46.3761 22.6141C50.5311 22.6141 53.9096 24.7422 54.301 29.472H49.4703C49.1798 27.7355 48.2135 26.5735 46.477 26.5735C44.3489 26.5735 42.8082 28.31 42.8082 31.8842V32.4652C42.8082 36.134 44.1596 37.7759 46.477 37.7759C48.2135 37.7759 49.4702 36.5192 49.7607 34.4922H54.3957C54.1053 38.6473 51.3015 41.6405 46.3761 41.6405ZM65.4086 41.6405C60.1927 41.6405 56.6185 38.5463 56.6185 32.4652V32.08C56.6185 25.9926 60.3884 22.6141 65.3139 22.6141C69.8543 22.6141 73.6241 25.1274 73.6241 31.2148V33.4377H61.8345C62.0303 36.7214 63.4764 37.9779 65.6045 37.9779C67.5367 37.9779 68.5976 36.9171 68.9828 35.6605H73.7189C73.0432 39.0325 70.2395 41.6405 65.4086 41.6405ZM61.8345 30.0467H68.6923C68.5976 27.3439 67.341 26.182 65.3139 26.182C63.6721 26.283 62.2197 27.1482 61.8345 30.0467ZM76.712 23.0941H81.8333V25.7969C82.7048 24.0602 84.5359 22.7026 87.3398 22.7026C90.6234 22.7026 92.8462 24.7297 92.8462 29.0804V41.2553H87.7249V29.8572C87.7249 27.7291 86.8535 26.763 85.0222 26.763C83.2857 26.763 81.8333 27.8239 81.8333 30.1413V41.249H76.712V23.0941ZM102.217 17.5877V23.0941H105.697V26.8639H102.217V35.4647C102.217 36.816 102.798 37.4918 104.055 37.4918C104.825 37.4918 105.312 37.397 105.791 37.2012V41.1605C105.21 41.3564 104.15 41.5458 102.893 41.5458C98.9336 41.5458 97.096 39.7081 97.096 36.0394V26.8578H94.9743V23.0878H97.1023V19.7095L102.217 17.5877ZM124.824 41.2553H119.703V38.5527C118.831 40.2892 117.095 41.6468 114.392 41.6468C111.108 41.6468 108.69 39.6199 108.69 35.37V23.0941H113.811V34.6879C113.811 36.816 114.683 37.7822 116.419 37.7822C118.156 37.7822 119.608 36.6203 119.608 34.4038V23.1889H124.729V41.2553H124.824ZM128.594 23.0941H133.715V26.4726C134.776 24.0602 136.519 22.8984 139.222 22.8984V27.925C135.742 27.925 133.715 28.9858 133.715 31.9853V41.3564H128.594V23.0941ZM149.559 41.6405C144.343 41.6405 140.769 38.5463 140.769 32.4652V32.08C140.769 25.9926 144.539 22.6141 149.464 22.6141C154.005 22.6141 157.774 25.1274 157.774 31.2148V33.4377H145.985C146.18 36.7214 147.627 37.9779 149.755 37.9779C151.688 37.9779 152.748 36.9171 153.132 35.6605H157.869C157.099 39.0325 154.295 41.6405 149.559 41.6405ZM145.89 30.0467H152.748C152.653 27.3439 151.397 26.182 149.369 26.182C147.822 26.283 146.37 27.1482 145.89 30.0467Z" fill="white"/>
</g>
</g>
<defs>
<clipPath id="clip0_2727_6190">
<rect width="157.88" height="41.7298" fill="white"/>
</clipPath>
</defs>
</svg>
