<svg width="126" height="42" viewBox="0 0 126 42" fill="none" xmlns="http://www.w3.org/2000/svg">
<g clip-path="url(#clip0_2727_6202)">
<path d="M53.3836 21.9413C53.3836 27.841 48.7683 32.1886 43.104 32.1886C37.4404 32.1886 32.8251 27.841 32.8251 21.9413C32.8251 15.9998 37.4404 11.694 43.104 11.694C48.7683 11.694 53.3836 15.9998 53.3836 21.9413ZM48.8834 21.9413C48.8834 18.2546 46.209 15.7319 43.104 15.7319C39.9997 15.7319 37.3243 18.2546 37.3243 21.9413C37.3243 25.5912 39.9991 28.1504 43.104 28.1504C46.209 28.1504 48.8834 25.5862 48.8834 21.9413Z" fill="white"/>
<path d="M75.5603 21.9413C75.5603 27.841 70.945 32.1886 65.2813 32.1886C59.6171 32.1886 55.0018 27.841 55.0018 21.9413C55.0018 16.0048 59.6171 11.694 65.2813 11.694C70.945 11.694 75.5603 15.9998 75.5603 21.9413ZM71.0602 21.9413C71.0602 18.2546 68.3856 15.7319 65.2807 15.7319C62.1758 15.7319 59.5011 18.2546 59.5011 21.9413C59.5011 25.5912 62.1758 28.1504 65.2807 28.1504C68.3856 28.1504 71.0602 25.5862 71.0602 21.9413Z" fill="white"/>
<path d="M96.8114 12.3144V30.7112C96.8114 38.2789 92.348 41.3694 87.0724 41.3694C82.1057 41.3694 79.1173 38.0478 77.9893 35.3309L81.9077 33.6996C82.6053 35.3676 84.3144 37.3357 87.068 37.3357C90.4452 37.3357 92.538 35.2522 92.538 31.3295V29.8553H92.381C91.3738 31.0986 89.433 32.1835 86.9852 32.1835C81.8616 32.1835 77.1677 27.7209 77.1677 21.9781C77.1677 16.1943 81.8616 11.694 86.9852 11.694C89.4287 11.694 91.3695 12.7797 92.381 13.9856H92.538V12.3174H96.8114V12.3144ZM92.8569 21.9793C92.8569 18.3717 90.4501 15.7331 87.3869 15.7331C84.2826 15.7331 81.6816 18.3711 81.6816 21.9793C81.6816 25.5508 84.2826 28.1516 87.3869 28.1516C90.4501 28.1516 92.8569 25.5508 92.8569 21.9793Z" fill="white"/>
<path d="M103.857 1.53149V31.5612H99.4679V1.53149H103.857Z" fill="white"/>
<path d="M120.961 25.3139L124.454 27.6421C123.326 29.3101 120.61 32.1833 115.916 32.1833C110.094 32.1833 105.747 27.684 105.747 21.9369C105.747 15.8435 110.132 11.6896 115.412 11.6896C120.729 11.6896 123.331 15.9211 124.181 18.2076L124.647 19.3724L110.949 25.046C111.998 27.1014 113.629 28.1502 115.916 28.1502C118.208 28.1502 119.797 27.0224 120.961 25.3139ZM110.21 21.6267L119.367 17.8242C118.864 16.5448 117.348 15.6532 115.565 15.6532C113.278 15.6532 110.095 17.6722 110.21 21.6267Z" fill="white"/>
<path d="M16.2127 19.2754V14.9285H30.8629C31.0062 15.6859 31.0803 16.5825 31.0803 17.5522C31.0803 20.8141 30.1885 24.847 27.3152 27.7208C24.5205 30.6314 20.9491 32.1836 16.2185 32.1836C7.44992 32.1836 0.0765381 25.0413 0.0765381 16.2728C0.0765381 7.5042 7.44992 0.361938 16.2185 0.361938C21.0693 0.361938 24.5248 2.26543 27.1215 4.74627L24.0541 7.8137C22.1924 6.06784 19.6696 4.70947 16.2139 4.70947C9.81098 4.70947 4.8027 9.86981 4.8027 16.2734C4.8027 22.6764 9.81098 27.8373 16.2139 27.8373C20.3672 27.8373 22.733 26.1693 24.2484 24.6539C25.4773 23.425 26.2856 21.6691 26.6045 19.2718L16.2127 19.2754Z" fill="white"/>
</g>
<defs>
<clipPath id="clip0_2727_6202">
<rect width="125.194" height="41.7314" fill="white"/>
</clipPath>
</defs>
</svg>
