<svg width="144" height="42" viewBox="0 0 144 42" fill="none" xmlns="http://www.w3.org/2000/svg">
<g clip-path="url(#clip0_2727_6211)">
<mask id="mask0_2727_6211" style="mask-type:luminance" maskUnits="userSpaceOnUse" x="-1" y="0" width="145" height="42">
<path d="M143.02 0.00109863H-0.00390625V41.7308H143.02V0.00109863Z" fill="white"/>
</mask>
<g mask="url(#mask0_2727_6211)">
<path d="M15.4859 6.69348V18.1018H4.98034V6.69348H-0.00390625V33.9268H4.98169V22.8886H15.4845V33.9268H20.4714V6.69348H15.4859ZM36.4294 25.1246C36.4294 26.2161 35.9948 27.263 35.2212 28.0349C34.4474 28.8066 33.3981 29.2404 32.3039 29.2404C31.2098 29.2404 30.1605 28.8066 29.3868 28.0349C28.6132 27.263 28.1786 26.2161 28.1786 25.1246V13.4591H23.4492V25.1246C23.4492 27.4651 24.3813 29.7098 26.0403 31.365C27.6991 33.02 29.9492 33.9498 32.2952 33.9498C34.6413 33.9498 36.8912 33.02 38.5502 31.365C40.2092 29.7098 41.1411 27.4651 41.1411 25.1246V13.4591H36.4294V25.1246ZM71.4717 14.6612C71.4717 12.2691 73.0571 11.5112 74.7936 11.5112C76.1941 11.5112 78.0426 12.5747 79.253 13.8643L82.3495 10.2217C80.8032 8.13517 77.6676 6.69348 75.0997 6.69348C69.9685 6.69348 66.2581 9.69129 66.2581 14.6612C66.2581 23.882 77.5542 20.9556 77.5542 26.1167C77.5542 27.7078 76.0051 29.1131 74.2322 29.1131C71.4351 29.1131 70.5285 27.7495 69.2439 26.3065L65.806 29.8724C68.0053 32.5646 70.7174 33.9323 73.9651 33.9323C78.84 33.9323 82.761 30.8981 82.761 26.1543C82.761 15.9184 71.4635 19.0994 71.4635 14.6612M141.356 29.5761C138.562 29.5761 137.767 28.3701 137.767 26.5231V18.3455H142.112V14.2021H137.767V8.73554L132.972 10.8826V27.5395C132.972 31.7999 135.919 33.947 139.958 33.947C140.593 33.9577 141.227 33.9067 141.85 33.7962L143.02 29.4994C142.492 29.5358 141.887 29.5721 141.356 29.5721M54.4316 13.595C52.0892 13.595 50.4539 14.2735 48.8725 15.8202V6.85635H44.1365V23.4715C44.1365 29.6906 48.6431 33.9524 53.7083 33.9524C59.3268 33.9524 64.2691 29.6153 64.2691 23.7757C64.2691 18.009 59.7207 13.5991 54.4316 13.5991M54.4018 29.1966C53.696 29.1966 52.997 29.0579 52.3449 28.7885C51.6928 28.5189 51.1003 28.1239 50.6013 27.6259C50.1021 27.1281 49.7062 26.537 49.4361 25.8864C49.166 25.2357 49.027 24.5384 49.027 23.8342C49.027 23.1302 49.166 22.4329 49.4361 21.7822C49.7062 21.1317 50.1021 20.5405 50.6013 20.0425C51.1003 19.5447 51.6928 19.1498 52.3449 18.8802C52.997 18.6107 53.696 18.472 54.4018 18.472C55.8274 18.472 57.1944 19.037 58.2025 20.0425C59.2104 21.0482 59.7768 22.4121 59.7768 23.8342C59.7768 25.2565 59.2104 26.6204 58.2025 27.6259C57.1944 28.6316 55.8274 29.1966 54.4018 29.1966ZM105.866 23.5281C105.866 17.6778 100.935 13.3514 95.3052 13.3514C90.2414 13.3514 85.7335 17.6118 85.7335 23.8323V40.4568H90.4694V31.481C92.0481 33.025 93.6863 33.7062 96.0259 33.7062C101.315 33.7062 105.866 29.2961 105.866 23.5281ZM101.381 23.4689C101.381 24.891 100.815 26.2549 99.8068 27.2606C98.7989 28.2662 97.4317 28.8311 96.0063 28.8311C94.5808 28.8311 93.2137 28.2662 92.2056 27.2606C91.1977 26.2549 90.6313 24.891 90.6313 23.4689C90.6313 22.0466 91.1977 20.6827 92.2056 19.6772C93.2137 18.6715 94.5808 18.1065 96.0063 18.1065C97.4317 18.1065 98.7989 18.6715 99.8068 19.6772C100.815 20.6827 101.381 22.0466 101.381 23.4689Z" fill="white"/>
<path d="M121.17 13.1238V8.37605C121.799 8.08284 122.331 7.61744 122.705 7.03405C123.08 6.45067 123.28 5.7733 123.283 5.08076V4.97172C123.283 2.95254 121.642 1.31566 119.618 1.31566H119.509C118.537 1.31566 117.605 1.70085 116.918 2.38649C116.231 3.07214 115.844 4.00207 115.844 4.97172V5.08076C115.848 5.7733 116.048 6.45067 116.422 7.03405C116.796 7.61744 117.328 8.08284 117.957 8.37605V13.1238C116.15 13.3999 114.448 14.1476 113.023 15.2911L99.9715 5.14941C100.065 4.81422 100.113 4.46961 100.119 4.12366C100.12 3.30887 99.8796 2.5119 99.4269 1.83356C98.9745 1.15523 98.3305 0.626014 97.5766 0.312852C96.8227 -0.000312141 95.9925 -0.0833515 95.1913 0.0742368C94.3899 0.231825 93.6535 0.622961 93.075 1.19817C92.4965 1.77337 92.1021 2.50681 91.9416 3.30572C91.7809 4.10461 91.8614 4.93307 92.1729 5.6863C92.4844 6.43955 93.0127 7.08371 93.6911 7.53734C94.3695 7.99096 95.1676 8.23365 95.9843 8.23471C96.6989 8.23135 97.4 8.04106 98.0177 7.6828L110.87 17.6602C109.715 19.4004 109.113 21.447 109.141 23.5337C109.17 25.6202 109.827 27.6499 111.029 29.358L107.12 33.2591C106.804 33.1582 106.475 33.1047 106.143 33.1002C105.473 33.1007 104.818 33.2995 104.26 33.6714C103.703 34.0434 103.269 34.5718 103.013 35.1898C102.756 35.8078 102.689 36.4877 102.82 37.1436C102.951 37.7995 103.274 38.4021 103.748 38.875C104.222 39.348 104.826 39.6701 105.484 39.8007C106.141 39.9314 106.823 39.8646 107.442 39.6088C108.062 39.3532 108.591 38.92 108.964 38.364C109.337 37.8082 109.536 37.1546 109.536 36.4857C109.532 36.1548 109.478 35.8263 109.377 35.5112L113.244 31.6518C114.505 32.6204 115.972 33.2881 117.532 33.6039C119.091 33.9195 120.703 33.875 122.242 33.4735C123.782 33.072 125.209 32.3241 126.414 31.2875C127.62 30.2506 128.571 28.9523 129.196 27.4921C129.82 26.0318 130.102 24.4483 130.018 22.8627C129.935 21.2773 129.488 19.7318 128.714 18.345C127.939 16.9581 126.857 15.7665 125.549 14.8615C124.241 13.9565 122.743 13.3621 121.17 13.1238ZM119.567 28.7388C118.852 28.7584 118.141 28.6349 117.475 28.3757C116.809 28.1163 116.202 27.7264 115.689 27.2291C115.177 26.7318 114.77 26.1369 114.492 25.4799C114.213 24.8228 114.07 24.1167 114.07 23.4035C114.07 22.6903 114.213 21.9842 114.492 21.327C114.77 20.6699 115.177 20.0751 115.689 19.5779C116.202 19.0804 116.809 18.6906 117.475 18.4312C118.141 18.172 118.852 18.0486 119.567 18.0681C120.952 18.1164 122.265 18.6993 123.227 19.6939C124.191 20.6883 124.729 22.0167 124.73 23.3995C124.73 24.7823 124.193 26.1114 123.231 27.1067C122.269 28.1021 120.958 28.6864 119.573 28.7361" fill="white"/>
</g>
</g>
<defs>
<clipPath id="clip0_2727_6211">
<rect width="143.024" height="41.7297" fill="white" transform="translate(-0.000976562)"/>
</clipPath>
</defs>
</svg>
