<svg width="99" height="42" viewBox="0 0 99 42" fill="none" xmlns="http://www.w3.org/2000/svg">
<g clip-path="url(#clip0_2727_6198)">
<path d="M7.59459 12.9949V40.8277H0.251503V12.9949H7.59459ZM56.2191 34.3089V41.1302H55.2564C53.0287 41.1302 51.1583 40.9375 49.6732 40.5252C48.2158 40.1128 47.0056 39.4526 46.0979 38.5174C45.1902 37.5822 44.5304 36.3447 44.145 34.8322C43.7596 33.2922 43.5673 31.3668 43.5673 29.084V2.15926H50.9104V12.9949H56.2186V19.2931H50.9104V29.0016C50.9104 30.1018 50.9653 31.0088 51.0753 31.6966C51.2128 32.4394 51.4602 32.9897 51.8451 33.3745C52.2304 33.7594 52.8077 34.0345 53.578 34.1444C54.2392 34.2544 55.1465 34.3089 56.2191 34.3089ZM98.2424 0.0134277V40.8548H90.8993V0.0134277H98.2424ZM27.9738 12.4445C31.6041 12.4445 34.4643 13.5447 36.4996 15.745C38.5349 17.9453 39.5795 21.0805 39.552 25.0412V40.8277H32.154V26.031C32.154 23.7487 31.6037 21.9609 30.559 20.6953C29.4863 19.4303 27.8633 18.7698 25.746 18.7698C23.9581 18.7698 22.3907 19.4302 21.0981 20.7503C19.888 21.9879 19.2558 23.9133 19.1733 26.5259V40.8272H11.8851V12.9944H19.1182V17.0099L19.5032 16.4876C20.4933 15.2225 21.7035 14.232 23.161 13.5172C24.591 12.8024 26.2134 12.4445 27.9738 12.4445ZM86.0594 21.245C86.7471 23.0054 87.104 24.876 87.104 26.8833V29.4959H65.2402L65.3221 29.7432C65.79 31.3662 66.6697 32.6862 67.9623 33.6209C69.2553 34.5836 70.9598 35.0515 73.0226 35.0515C76.323 35.0515 78.9632 33.2635 80.0633 31.9435L85.3441 35.9588C83.0334 38.5994 79.1831 41.4315 72.9681 41.4315C70.8228 41.4315 68.8155 41.0466 66.9996 40.2764C65.1847 39.5336 63.6172 38.489 62.3521 37.1959C61.0865 35.9033 60.0694 34.3633 59.3541 32.6034C58.6388 30.843 58.2814 28.9451 58.2814 26.9378C58.2814 24.9299 58.6393 23.032 59.4091 21.2721C60.1518 19.5117 61.1965 17.9717 62.4896 16.6791C63.7821 15.3865 65.3221 14.3689 67.0821 13.5992C68.8425 12.8564 70.7404 12.4718 72.7477 12.4718C74.8655 12.4718 76.8184 12.8293 78.5783 13.5721C80.3377 14.3143 81.8507 15.3315 83.1163 16.652C84.3539 17.9731 85.3446 19.5131 86.0594 21.245ZM72.6657 18.7154C67.6329 18.7429 65.2946 22.2908 65.2946 24.3262L80.0633 24.2986C80.0633 22.2633 77.6981 18.7154 72.6657 18.7154ZM0.059021 0.591355H7.78683V8.31919H0.059021V0.591355Z" fill="white"/>
</g>
<defs>
<clipPath id="clip0_2727_6198">
<rect width="98.6739" height="41.7277" fill="white"/>
</clipPath>
</defs>
</svg>
