<svg width="47" height="47" viewBox="0 0 47 47" fill="none" xmlns="http://www.w3.org/2000/svg">
<path d="M29.2649 7.34375C31.7562 8.01235 34.0277 9.32446 35.8517 11.1484C37.6756 12.9723 38.9877 15.2439 39.6563 17.7352" stroke="#14CF93" stroke-width="2" stroke-linecap="round" stroke-linejoin="round"/>
<path d="M27.741 13.0166C29.2393 13.4145 30.6058 14.2015 31.7021 15.2977C32.7983 16.3939 33.5852 17.7604 33.9832 19.2588" stroke="#14CF93" stroke-width="2" stroke-linecap="round" stroke-linejoin="round"/>
<path d="M16.9824 22.9124C18.4938 26.0335 21.0176 28.5508 24.1426 30.0542C24.3731 30.1634 24.6281 30.2106 24.8824 30.1913C25.1367 30.172 25.3816 30.0868 25.593 29.944L30.1828 26.878C30.3856 26.7405 30.6199 26.6566 30.8639 26.6341C31.1079 26.6116 31.3536 26.6513 31.5781 26.7495L40.1703 30.4398C40.464 30.562 40.7093 30.7773 40.8685 31.0527C41.0278 31.328 41.0921 31.6481 41.0516 31.9636C40.7792 34.0891 39.7417 36.0426 38.1332 37.4585C36.5247 38.8744 34.4554 39.6557 32.3125 39.6562C25.6904 39.6562 19.3395 37.0255 14.6569 32.343C9.97438 27.6604 7.34375 21.3095 7.34375 14.6874C7.34423 12.5445 8.12552 10.4752 9.54141 8.86667C10.9573 7.25816 12.9108 6.22067 15.0363 5.94835C15.3518 5.90782 15.6719 5.97213 15.9472 6.13136C16.2226 6.2906 16.4379 6.53594 16.5602 6.8296L20.2504 15.4401C20.3464 15.6611 20.3865 15.9023 20.3673 16.1424C20.3481 16.3825 20.2701 16.6142 20.1402 16.8171L17.0742 21.4804C16.9377 21.6913 16.8576 21.9337 16.8415 22.1844C16.8255 22.4351 16.874 22.6858 16.9824 22.9124V22.9124Z" stroke="#14CF93" stroke-width="2" stroke-linecap="round" stroke-linejoin="round"/>
</svg>
