<svg width="183" height="42" viewBox="0 0 183 42" fill="none" xmlns="http://www.w3.org/2000/svg">
<g clip-path="url(#clip0_2727_6220)">
<path d="M16.8522 25.3482C16.8522 29.5802 13.7813 32.2079 8.84164 32.2079C6.41581 32.2079 4.09708 31.8282 1.6386 30.5273C1.53155 30.4647 1.42365 30.4029 1.31479 30.3439C0.96461 30.1443 0.613305 29.9467 0.265851 29.6954C0.256779 29.6836 0.24495 29.6719 0.229528 29.6564C0.156953 29.5875 0.0383126 29.4735 0.164412 29.1479L0.160425 29.1408L1.13406 26.4316C1.28738 25.9681 1.64283 26.124 1.78345 26.2093C1.8914 26.2737 1.98841 26.3388 2.0882 26.4042L2.08954 26.406C2.23741 26.5003 2.39033 26.6025 2.59717 26.7222C5.47478 28.5402 8.12841 28.5543 8.96212 28.5543C11.1031 28.5543 12.4403 27.4128 12.4403 25.8832V25.7982C12.4403 24.1354 10.3874 23.5013 8.01507 22.7701L7.49059 22.608C4.23378 21.6791 0.74691 20.3339 0.74691 16.2089V16.1257C0.74691 12.213 3.90552 9.47761 8.42968 9.47761L8.92226 9.47498C11.5776 9.47498 14.146 10.2467 16.0039 11.378C16.1735 11.4796 16.3375 11.6748 16.244 11.9343C16.1542 12.1829 15.3288 14.3922 15.2354 14.6426C15.0603 15.1053 14.5816 14.795 14.5816 14.795C12.9622 13.9014 10.4289 13.1932 8.30521 13.1932C6.39466 13.1932 5.15396 14.2124 5.15396 15.5932V15.6756C5.15396 17.2868 7.27016 17.979 9.7205 18.7737L10.1444 18.9092C13.3849 19.928 16.854 21.3522 16.854 25.2649V25.3482H16.8522ZM37.1134 30.7913C37.1134 30.7913 36.5963 30.9323 36.13 31.0384C34.9633 31.2916 33.7922 31.5192 32.6155 31.7224C31.2357 31.9555 29.8101 32.0759 28.3768 32.0759C27.0124 32.0759 25.7753 31.9488 24.6785 31.6993C23.5708 31.4526 22.6117 31.034 21.8351 30.4697C21.0567 29.9036 20.4282 29.1523 20.0118 28.2832C19.5882 27.4069 19.3722 26.3367 19.3722 25.0965C19.3722 23.8745 19.6238 22.7953 20.12 21.8745C20.609 20.9618 21.3037 20.1742 22.1465 19.5736C22.9874 18.9676 23.9691 18.513 25.0568 18.2191C26.1373 17.927 27.2972 17.7788 28.4911 17.7788C29.3683 17.7788 30.1026 17.7982 30.6696 17.8399L30.682 17.8727C30.682 17.8727 31.7888 17.9723 32.9836 18.1455V17.5555C32.9836 15.6967 32.5953 14.8131 31.8333 14.2297C31.054 13.6292 29.8858 13.327 28.3799 13.327C28.3799 13.327 24.9823 13.2821 22.2998 14.7427C22.1764 14.8162 22.0712 14.8579 22.0712 14.8579C22.0712 14.8579 21.7348 14.9758 21.6123 14.6311L20.6196 11.9768C20.469 11.5904 20.7468 11.4205 20.7468 11.4205C22.0032 10.4361 25.0475 9.8453 25.0475 9.8453C26.0563 9.64209 27.7473 9.49975 28.7915 9.49975C31.5811 9.49975 33.7301 10.1465 35.1998 11.4311C36.6739 12.7138 37.4208 14.7932 37.4208 17.5919L37.4279 30.3368C37.4306 30.335 37.459 30.7051 37.1134 30.7913ZM46.4772 31.2414C46.4772 31.4763 46.3094 31.6666 46.0781 31.6666H42.3749C42.1399 31.6666 41.9731 31.4763 41.9731 31.2414V1.44227C41.9731 1.20912 42.1409 1.02145 42.3749 1.02145H46.0781C46.3103 1.02145 46.4772 1.20912 46.4772 1.44227V31.2414ZM69.6243 21.5847C69.6216 21.6128 69.619 21.6314 69.6181 21.6414C69.5791 21.9997 69.2123 22.002 69.2123 22.002L55.2253 21.9914C55.306 24.1169 55.8196 25.612 56.8465 26.6398C57.8553 27.6414 59.4675 28.2813 61.6266 28.2859C64.6539 28.2931 66.0963 27.7358 67.087 27.3548C67.1478 27.3321 67.2093 27.3074 67.2664 27.2857C67.2991 27.2721 67.3308 27.2611 67.3608 27.2502C67.3608 27.2502 67.7472 27.1129 67.8878 27.4939L68.8004 30.0507C68.9836 30.4816 68.8358 30.6325 68.6825 30.7187C67.8153 31.2058 65.6906 32.1039 61.6545 32.1166C59.6905 32.123 57.9896 31.8406 56.5825 31.2963C55.1664 30.7483 53.9889 29.9678 53.069 28.969C52.1581 27.9765 51.474 26.7844 51.0504 25.4199C50.6285 24.0655 50.4165 22.5714 50.4165 20.9602C50.4165 19.3844 50.6223 17.8792 51.0278 16.5075C51.4351 15.1186 52.0746 13.9057 52.9219 12.8779C53.7729 11.8518 54.8514 11.0315 56.136 10.4264C57.4179 9.82679 59.0019 9.53259 60.7464 9.53259C62.1208 9.53077 63.4826 9.80611 64.7472 10.345C65.6227 10.7169 66.4988 11.3988 67.4024 12.3631C67.9676 12.9755 68.8405 14.3114 69.1916 15.6305L69.1994 15.634C70.0413 18.5815 69.6833 21.1592 69.6243 21.5847ZM81.1538 32.2008C78.7279 32.2008 76.4093 31.8203 73.948 30.5184C73.9172 30.5003 73.8846 30.4816 73.852 30.4644C73.7767 30.4199 73.7 30.3777 73.6229 30.3342C73.2727 30.1364 72.9227 29.9378 72.5771 29.6875C72.568 29.6757 72.5562 29.6648 72.5408 29.6503C72.4673 29.5804 72.3478 29.4692 72.4739 29.1408L72.4619 29.1337L73.4356 26.4246C73.5789 25.9828 73.9951 26.1442 74.0849 26.2013C74.1439 26.2403 74.202 26.2775 74.2555 26.3147C74.4487 26.439 74.6301 26.5582 74.8995 26.7142C77.768 28.5322 80.429 28.5464 81.2636 28.5464C83.4037 28.5464 84.7426 27.4048 84.7426 25.8744V25.7894C84.7426 24.1265 82.6988 23.4933 80.3165 22.7621L79.7939 22.6C76.5371 21.6711 73.0488 20.326 73.0488 16.201V16.1168C73.0488 12.2041 76.2079 9.46963 80.732 9.46963L81.2264 9.46881C83.8809 9.46881 86.448 10.2377 88.3068 11.3708C88.4746 11.4715 88.6407 11.6668 88.5464 11.9263C88.4665 12.1749 87.6392 14.3842 87.5457 14.6346C87.3707 15.0982 86.8897 14.787 86.8897 14.787C85.2622 13.8935 82.7394 13.1852 80.6138 13.1852C78.7033 13.1852 77.4634 14.2036 77.4634 15.5835V15.6676C77.4634 17.2779 79.5787 17.9701 82.0299 18.7648L82.4548 18.9012C85.7034 19.92 89.1644 21.3451 89.1644 25.2569V25.3393C89.1644 29.5732 86.0916 32.2008 81.1538 32.2008ZM105.592 13.3244C105.512 13.7462 105.124 13.731 105.124 13.731H100.526L97.3797 31.5275C97.0495 33.3691 96.6367 34.9484 96.1523 36.2194C95.6633 37.5022 95.1507 38.4433 94.3361 39.3423C93.5858 40.1751 92.734 40.7905 91.7569 41.1416C90.7871 41.4935 89.6152 41.6741 88.3316 41.6741C87.7174 41.6741 87.0621 41.6624 86.2847 41.4791C85.7249 41.3476 85.4194 41.2531 85.0102 41.1053C84.8342 41.0445 84.6943 40.8256 84.7931 40.5498C84.892 40.2704 85.714 38.0079 85.8302 37.7122C85.9735 37.3502 86.3355 37.488 86.3355 37.488L86.3546 37.4951C86.5932 37.5949 86.7656 37.6682 87.0903 37.7317C87.4215 37.7988 87.8714 37.8566 88.208 37.8566C88.8176 37.8566 89.3701 37.7806 89.8527 37.6191C90.4351 37.4232 90.7735 37.0876 91.1301 36.6322C91.4975 36.1604 91.7977 35.5132 92.1035 34.6477C92.4137 33.7705 92.6931 32.613 92.9399 31.205L96.0706 13.731H92.9844C92.6133 13.731 92.4945 13.5576 92.5299 13.28L93.0506 10.3768C93.1313 9.95588 93.5196 9.97112 93.5196 9.97112H96.6884L96.859 9.02581C97.3325 6.2226 98.2769 4.09209 99.6649 2.6932C101.064 1.28433 103.054 0.570515 105.58 0.570515C106.215 0.563257 106.85 0.613252 107.479 0.717579C107.944 0.799226 108.404 0.909298 108.858 1.04538C108.956 1.08348 109.225 1.21693 109.114 1.53263L108.046 4.4624C107.957 4.68375 107.896 4.81825 107.441 4.67945C107.328 4.64497 107.159 4.59655 106.726 4.50492C106.413 4.4396 106 4.38886 105.58 4.38886C105.071 4.38161 104.567 4.45446 104.08 4.60415C103.638 4.7493 103.238 4.99946 102.913 5.33149C102.563 5.68166 102.152 6.192 101.933 6.8234C101.488 8.10707 101.276 9.4621 101.215 9.85945C101.203 9.92023 101.199 9.95842 101.196 9.97112H105.659C106.032 9.97022 106.152 10.1445 106.115 10.4212L105.592 13.3244ZM125.967 25.2932C125.56 26.6658 124.93 27.868 124.091 28.8768C123.249 29.8856 122.179 30.6937 120.921 31.268C119.664 31.8413 118.178 32.1326 116.505 32.1326C114.833 32.1326 113.345 31.8413 112.08 31.268C110.822 30.6928 109.752 29.8865 108.911 28.8768C108.07 27.8671 107.44 26.6649 107.036 25.2932C106.634 23.9297 106.429 22.4422 106.429 20.8582C106.429 19.2734 106.634 17.7868 107.036 16.4242C107.442 15.0526 108.074 13.8476 108.911 12.8388C109.752 11.83 110.822 11.0206 112.08 10.4327C113.345 9.84484 114.823 9.54674 116.505 9.54674C118.187 9.54674 119.674 9.84303 120.93 10.4327C122.196 11.0169 123.257 11.83 124.099 12.8388C124.941 13.8476 125.57 15.0526 125.975 16.4242H125.967C126.367 17.7868 126.572 19.2824 126.572 20.8582C126.572 22.4422 126.367 23.9297 125.967 25.2932ZM143.079 10.6444L143.088 10.5868C142.955 10.9669 142.274 12.8789 142.033 13.5166C141.943 13.7588 141.794 13.923 141.524 13.894C141.524 13.894 140.723 13.7044 139.993 13.7044C139.36 13.7044 138.727 13.7942 138.118 13.9702C137.468 14.1716 136.876 14.5259 136.393 15.0058C135.883 15.5012 135.473 16.1921 135.171 17.0594C134.862 17.9339 134.709 19.3247 134.709 20.7236V31.1687C134.709 31.2803 134.664 31.3874 134.585 31.4664C134.506 31.5471 134.398 31.5922 134.285 31.5922H130.621C130.509 31.5922 130.401 31.5471 130.322 31.4664C130.242 31.3874 130.197 31.2803 130.197 31.1687V10.3671C130.197 10.134 130.366 9.94454 130.596 9.94454H134.173C134.408 9.94454 134.574 10.134 134.574 10.3671L134.576 12.0672C135.105 11.3405 136.064 10.7128 136.929 10.3237C137.806 9.92903 138.779 9.63456 140.533 9.74342C141.444 9.80057 142.631 10.0514 142.868 10.1403C142.915 10.1594 142.958 10.1873 142.995 10.2227C143.012 10.239 143.029 10.2568 143.04 10.2768C143.049 10.2895 143.057 10.3003 143.063 10.313C143.069 10.3248 143.074 10.3358 143.08 10.3485C143.101 10.3957 143.108 10.4466 143.108 10.4965C143.108 10.5482 143.098 10.5982 143.079 10.6444ZM160.719 31.0412C159.161 31.6572 156.993 32.0856 154.877 32.0856C151.302 32.0856 148.559 31.0587 146.734 29.0229C144.91 26.9963 143.991 24.227 143.991 20.8087C143.991 19.2247 144.216 17.7283 144.663 16.3666C145.115 14.9931 145.787 13.7892 146.672 12.7804C147.557 11.7716 148.671 10.9593 149.991 10.3742C151.31 9.78633 152.85 9.48913 154.584 9.48913C155.753 9.48913 156.789 9.56035 157.682 9.69733C158.638 9.84158 159.901 10.1841 160.436 10.3937C160.533 10.4309 160.801 10.5635 160.693 10.8783C160.432 11.615 160.226 12.1809 160.008 12.7742C159.903 13.0654 159.794 13.3627 159.675 13.6929C159.52 14.1183 159.197 13.9782 159.197 13.9782C157.833 13.55 156.532 13.3536 154.832 13.3536C152.798 13.3536 151.259 14.0454 150.256 15.3735C149.244 16.7171 148.678 18.47 148.673 20.8069C148.663 23.3733 149.301 25.2674 150.443 26.445C151.575 27.6225 153.169 28.2141 155.16 28.2141C155.967 28.2141 156.73 28.1599 157.416 28.052C158.098 27.9467 158.739 27.7349 159.337 27.5054C159.337 27.5054 159.729 27.3534 159.864 27.7526H159.867L160.885 30.5503C161.015 30.8977 160.719 31.0412 160.719 31.0412ZM181.42 21.5847C181.416 21.6128 181.415 21.6314 181.415 21.6414C181.376 21.9997 181.007 22.002 181.007 22.002L167.024 21.9914C167.104 24.1169 167.616 25.612 168.643 26.6398C169.65 27.6414 171.254 28.2813 173.422 28.2859C176.45 28.2931 177.894 27.7358 178.882 27.3548C178.978 27.3185 179.07 27.2829 179.158 27.2502C179.158 27.2502 179.545 27.1129 179.685 27.4939L180.597 30.0507C180.778 30.4816 180.633 30.6325 180.477 30.7187C179.61 31.2058 177.486 32.1039 173.45 32.1166C171.494 32.123 169.786 31.8406 168.379 31.2963C166.963 30.7483 165.785 29.9678 164.864 28.969C163.944 27.9765 163.26 26.7844 162.837 25.4199C162.418 24.0655 162.205 22.5714 162.205 20.9602C162.205 19.3844 162.41 17.8792 162.818 16.5075C163.224 15.1186 163.863 13.9057 164.713 12.8779C165.562 11.8518 166.642 11.0315 167.924 10.4264C169.209 9.82679 170.792 9.53259 172.537 9.53259C173.91 9.53077 175.273 9.80611 176.538 10.345C177.413 10.7169 178.29 11.3988 179.192 12.3631C179.759 12.9755 180.628 14.3114 180.98 15.6305L180.999 15.634C181.838 18.5815 181.481 21.1592 181.42 21.5847ZM60.4199 13.2296C58.5874 13.2296 57.2848 13.9466 56.4275 15.2548C55.8568 16.113 55.4922 17.2206 55.2944 18.5469L65.2527 18.5478C65.1584 17.265 64.906 16.1184 64.3317 15.2548C63.4636 13.9502 62.2506 13.2296 60.4199 13.2296ZM116.513 13.3359C114.673 13.3359 113.37 13.9625 112.513 15.2734C111.65 16.5933 111.211 18.4687 111.211 20.8582C111.211 23.2478 111.648 25.1425 112.513 26.4707C113.372 27.7852 114.683 28.4267 116.513 28.4267C118.346 28.4267 119.662 27.7808 120.532 26.4609C121.405 25.1246 121.849 23.2425 121.85 20.853C121.849 18.4652 121.409 16.5906 120.532 15.2734C119.663 13.9697 118.353 13.3359 116.513 13.3359ZM32.9783 21.637C31.7246 21.4437 30.4597 21.3363 29.1896 21.3155C26.3392 21.2801 25.1275 22.3245 25.1357 22.3236C24.2947 22.916 23.8874 23.8011 23.8874 25.0221C23.8874 25.8005 24.0297 26.4101 24.3064 26.8382C24.4869 27.1213 24.5642 27.2293 25.1122 27.6666L25.1211 27.671C25.1111 27.6674 26.3687 28.6567 29.2109 28.4853C31.2104 28.3646 32.98 27.9829 32.98 27.9829H32.9783V21.637ZM172.207 13.2296C170.375 13.2296 169.07 13.9466 168.215 15.2548C167.645 16.113 167.281 17.2206 167.083 18.5469L177.04 18.5478C176.946 17.265 176.694 16.1184 176.119 15.2548C175.252 13.9502 174.04 13.2296 172.207 13.2296Z" fill="white"/>
</g>
<defs>
<clipPath id="clip0_2727_6220">
<rect width="182.345" height="41.7308" fill="white"/>
</clipPath>
</defs>
</svg>
