<svg width="176" height="36" viewBox="0 0 176 36" fill="none" xmlns="http://www.w3.org/2000/svg">
<g clip-path="url(#clip0_2727_6707)">
<path d="M0 33.4847C0.00544302 29.8148 0.0598732 26.0979 0.163291 23.1941C0.163291 23.1851 0.172362 23.1742 0.186877 23.1742C0.377383 23.176 0.555188 23.27 0.664048 23.4254L7.49685 33.1938C8.24617 34.2744 9.47992 34.9194 10.7971 34.9231H10.8262C14.7197 34.9231 17.483 32.93 17.483 29.0468C17.483 20.0464 0.33021 20.9101 0.33021 9.59313C0.33021 3.44767 5.52285 0 12.9344 0C16.4034 0 19.5404 0.60533 22.0098 1.72384C22.349 1.87743 22.5649 2.21714 22.5595 2.58937C22.4996 5.73709 22.3817 8.88481 22.2057 12.0289C22.1966 12.1735 22.0769 12.2855 21.9317 12.2873C21.9281 12.2873 21.919 12.2873 21.9136 12.2783L15.2423 2.45927C14.6218 1.54133 13.5894 0.984791 12.4772 0.970336H12.45C9.14971 0.970336 6.87453 2.80078 6.87453 5.93043C6.87453 14.6092 24.0817 14.2298 24.0817 26.1394C24.0817 32.5505 18.6188 35.9494 10.5558 35.9494C6.99065 35.9494 3.24585 35.3477 0.602361 34.3539C0.241307 34.2165 0.00362868 33.8696 0.00544302 33.4847M51.5672 33.5787C50.3788 35.1959 48.5916 35.8934 46.3165 35.8934C43.2339 35.8934 41.122 34.6556 40.418 32.4457C38.6872 34.493 36.0908 35.8934 32.8414 35.8934C28.6738 35.8934 26.0213 33.6293 26.0213 29.8563C26.0213 25.1131 30.2432 22.3665 40.0915 21.613V17.0866C40.0915 12.936 38.8486 11.0495 36.793 11.0495H36.7748C35.9856 11.0495 35.2508 11.4435 34.7827 12.0723L28.8915 19.9434C28.7899 20.0807 28.6303 20.162 28.4597 20.162C28.1096 17.2872 27.8991 15.229 27.7394 12.6126C27.7158 12.1988 27.9662 11.8193 28.3563 11.6784C31.0851 10.7297 33.9535 10.2454 36.842 10.2454C44.6364 10.2454 47.7189 13.9118 47.7189 19.0851V31.2658C47.7189 32.9354 48.5826 33.6925 49.7202 33.6925C50.2082 33.6925 50.8015 33.5877 51.451 33.3149L51.5581 33.5823L51.5672 33.5787ZM40.0969 31.5296V22.4785C35.3887 23.1254 33.5471 25.6588 33.5471 29.1083C33.5471 32.0717 34.848 33.3094 36.5789 33.3094C37.7673 33.3094 38.8523 32.8252 40.0969 31.5296Z" fill="black"/>
<path d="M77.4233 34.0106C78.6117 34.6159 79.4808 35.167 80.4551 35.8284V35.9964H66.98V35.8284C67.8999 35.167 68.7109 34.6159 69.7922 34.0106V17.4426C69.7922 14.5243 68.4932 12.6523 65.8424 12.6523C64.273 12.6523 63.0284 13.3137 61.7293 14.687V34.007C62.8106 34.6123 63.6235 35.1616 64.5415 35.823V35.991H51.0156V35.823C52.0407 35.1616 52.966 34.6123 54.1036 34.007V19.0002C54.1036 16.7668 52.9334 14.6906 51.0156 13.5305C51.0156 13.4293 51.0755 13.3408 51.168 13.3047C53.8152 12.2133 57.2824 11.1724 60.3232 10.5689C60.6153 10.5111 60.9165 10.596 61.1342 10.7966C61.3519 10.9972 61.4608 11.2899 61.4263 11.5844L61.136 14.1413C63.1917 11.7181 66.4919 10.2906 69.5745 10.2906C74.7127 10.2906 77.4197 13.5359 77.4197 18.7129V34.016L77.4233 34.0106ZM106.563 33.6781C105.375 35.2953 103.588 35.9928 101.315 35.9928C98.2302 35.9928 96.1201 34.755 95.4143 32.5451C93.6816 34.5942 91.0871 35.9928 87.8376 35.9928C83.6683 35.9928 81.0194 33.7287 81.0194 29.9558C81.0194 25.2125 85.2377 22.4659 95.0896 21.7124V17.1878C95.0896 13.0354 93.8449 11.149 91.7893 11.149H91.7693C90.9819 11.149 90.2471 11.5411 89.7772 12.1717L83.7264 20.256C83.5721 20.256 83.4415 20.1404 83.4234 19.9886C83.095 17.251 82.8899 15.2453 82.7357 12.7084C82.7121 12.2946 82.9661 11.9133 83.358 11.7742C86.0868 10.8255 88.9553 10.3412 91.8437 10.3412C99.6381 10.3412 102.719 14.0058 102.719 19.1791V31.3616C102.719 33.0312 103.584 33.7883 104.722 33.7883C105.208 33.7883 105.801 33.6835 106.451 33.4107L106.558 33.6781H106.563ZM95.0932 31.629V22.578C90.3868 23.2248 88.5434 25.7582 88.5434 29.2077C88.5434 32.1693 89.8443 33.4107 91.5752 33.4107C92.7618 33.4107 93.8485 32.9246 95.0932 31.629ZM131.808 33.6781C130.62 35.2953 128.831 35.9928 126.557 35.9928C123.475 35.9928 121.363 34.755 120.655 32.5451C118.925 34.5942 116.33 35.9928 113.081 35.9928C108.911 35.9928 106.262 33.7287 106.262 29.9558C106.262 25.2125 110.481 22.4659 120.332 21.7124V17.1878C120.332 13.0354 119.088 11.149 117.032 11.149H117.012C116.225 11.149 115.49 11.5411 115.022 12.1717L108.967 20.256C108.815 20.2542 108.686 20.1404 108.666 19.9886C108.338 17.251 108.133 15.2453 107.98 12.7084C107.955 12.2946 108.209 11.9133 108.603 11.7742C111.33 10.8255 114.198 10.3412 117.088 10.3412C124.881 10.3412 127.962 14.0058 127.962 19.1791V31.3616C127.962 33.0312 128.827 33.7883 129.965 33.7883C130.56 33.7775 131.15 33.6492 131.696 33.4107L131.803 33.6781H131.808ZM120.336 31.629V22.578C115.63 23.2248 113.788 25.7582 113.788 29.2077C113.788 32.1693 115.087 33.4107 116.818 33.4107C118.006 33.4107 119.09 32.9246 120.336 31.629Z" fill="black"/>
<path d="M172.917 34.016C174.106 34.6213 175.029 35.1724 176 35.8338V36H162.525V35.832C163.396 35.158 164.319 34.549 165.284 34.016V17.3938C165.284 14.5316 164.042 12.6596 161.605 12.6596C161.394 12.6596 161.191 12.6776 160.983 12.7102C159.079 13.0192 157.71 14.7069 157.71 16.6295V34.0178C158.902 34.6213 159.767 35.1743 160.741 35.8356V36H147.266V35.8338C148.128 35.1742 148.997 34.6231 150.078 34.0178V16.9529C150.078 14.2569 148.836 12.6578 146.346 12.6578H146.198C144.095 12.7355 142.453 14.5009 142.453 16.6005V34.0124C143.532 34.6159 144.345 35.167 145.265 35.8284V35.9964H131.737V35.8284C132.739 35.1797 133.768 34.5725 134.82 34.0124V19.0056C134.82 16.7722 133.65 14.696 131.737 13.5359V13.3679C134.403 12.2548 137.944 11.1869 141.041 10.5689C141.332 10.5111 141.633 10.596 141.852 10.7966C142.07 10.9972 142.179 11.2899 142.146 11.5844L141.852 14.1413C143.853 11.8302 146.992 10.2906 150.186 10.2906C153.379 10.2906 155.705 11.6675 156.899 14.0907C159.711 11.4471 162.416 10.2906 165.5 10.2906C170.1 10.2906 172.914 13.4853 172.914 18.5484V34.016H172.917Z" fill="black"/>
</g>
<defs>
<clipPath id="clip0_2727_6707">
<rect width="176" height="36" fill="white"/>
</clipPath>
</defs>
</svg>
