<svg width="145" height="42" viewBox="0 0 145 42" fill="none" xmlns="http://www.w3.org/2000/svg">
<g clip-path="url(#clip0_2727_6238)">
<mask id="mask0_2727_6238" style="mask-type:luminance" maskUnits="userSpaceOnUse" x="0" y="0" width="145" height="42">
<path d="M144.526 0.00109863H0.627563V41.1104H144.526V0.00109863Z" fill="white"/>
</mask>
<g mask="url(#mask0_2727_6238)">
<path d="M50.4099 22.8588C49.1847 22.1817 48.5398 21.6336 48.5398 20.8598C48.5398 19.8603 49.4104 19.2477 50.7968 19.2477C52.409 19.2477 53.8276 19.9248 53.8276 19.9248L54.9561 16.4748C54.9561 16.4748 53.9243 15.6687 50.8612 15.6687C46.6053 15.6687 43.639 18.1192 43.639 21.5368C43.639 23.4714 45.0254 24.9546 46.8633 26.0186C48.3464 26.8569 48.8623 27.4695 48.8623 28.3401C48.8623 29.2751 48.1207 30.0167 46.7342 30.0167C44.6707 30.0167 42.7361 28.9527 42.7361 28.9527L41.5432 32.4026C41.5432 32.4026 43.3488 33.5956 46.3474 33.5956C50.7323 33.5956 53.8599 31.4353 53.8599 27.5663C53.9243 25.4382 52.3122 23.955 50.4099 22.8588Z" fill="white"/>
<path d="M67.8812 15.6047C65.7208 15.6047 64.0443 16.6364 62.7223 18.184L62.6579 18.1519L64.5279 8.3501H59.6271L54.8873 33.2737H59.756L61.3682 24.7616C62.013 21.5373 63.6573 19.5706 65.2051 19.5706C66.3013 19.5706 66.7204 20.3121 66.7204 21.376C66.7204 22.0532 66.656 22.8593 66.4948 23.5364L64.6569 33.3059H69.5256L71.4279 23.2462C71.6535 22.1821 71.7824 20.9247 71.7824 20.0542C71.847 17.249 70.4283 15.6047 67.8812 15.6047Z" fill="white"/>
<path d="M82.8787 15.6016C77.0105 15.6016 73.1091 20.8892 73.1091 26.7896C73.1091 30.5621 75.4305 33.625 79.8156 33.625C85.587 33.625 89.4561 28.4663 89.4561 22.437C89.4883 18.9225 87.4571 15.6016 82.8787 15.6016ZM80.4927 29.8527C78.816 29.8527 78.1389 28.434 78.1389 26.6607C78.1389 23.8556 79.5898 19.3094 82.2338 19.3094C83.9749 19.3094 84.523 20.7926 84.523 22.2435C84.523 25.2743 83.0722 29.8527 80.4927 29.8527Z" fill="white"/>
<path d="M101.963 15.6016C98.6744 15.6016 96.8044 18.5033 96.8044 18.5033H96.7399L97.03 15.8917H92.7096C92.4839 17.6651 92.0969 20.3412 91.7101 22.3724L88.3246 40.1703H93.1932L94.5474 32.948H94.6441C94.6441 32.948 95.6436 33.5929 97.5137 33.5929C103.253 33.5929 106.993 27.7246 106.993 21.7921C106.993 18.5356 105.542 15.6016 101.963 15.6016ZM97.3203 29.9494C96.0627 29.9494 95.3212 29.2401 95.3212 29.2401L96.1273 24.6938C96.7076 21.663 98.2876 19.6318 99.9642 19.6318C101.447 19.6318 101.899 21.0183 101.899 22.3079C101.899 25.4355 100.029 29.9494 97.3203 29.9494Z" fill="white"/>
<path d="M113.961 8.60791C112.413 8.60791 111.155 9.83327 111.155 11.4456C111.155 12.8967 112.058 13.8963 113.445 13.8963H113.509C115.025 13.8963 116.347 12.8644 116.379 11.0586C116.411 9.60755 115.444 8.60791 113.961 8.60791Z" fill="white"/>
<path d="M107.125 33.2712H112.026L115.347 15.9893H110.413L107.125 33.2712Z" fill="white"/>
<path d="M127.732 15.9569H124.347L124.508 15.1509C124.798 13.4743 125.766 11.9911 127.41 11.9911C128.281 11.9911 128.958 12.2491 128.958 12.2491L129.925 8.44443C129.925 8.44443 129.087 8.02527 127.281 8.02527C125.54 8.02527 123.831 8.50891 122.509 9.6374C120.832 11.0561 120.059 13.0874 119.672 15.1509L119.543 15.9569H117.286L116.576 19.6326H118.833L116.254 33.2712H121.123L123.702 19.6326H127.055L127.732 15.9569Z" fill="white"/>
<path d="M139.457 15.9893C139.457 15.9893 136.394 23.663 135.04 27.8544H134.976C134.879 26.5003 133.783 15.9893 133.783 15.9893H128.656L131.59 31.8525C131.655 32.2072 131.622 32.433 131.493 32.6586C130.913 33.7548 129.978 34.8189 128.849 35.5927C127.947 36.2699 126.915 36.689 126.109 36.9791L127.463 41.1062C128.463 40.8806 130.494 40.0745 132.235 38.4623C134.46 36.3665 136.523 33.1745 138.619 28.7896L144.584 15.9893H139.457Z" fill="white"/>
<path d="M24.7475 4.77099C24.7475 4.77099 24.2959 4.89996 23.5544 5.12566C23.4255 4.70651 23.232 4.22288 22.9741 3.70699C22.1358 2.09486 20.8783 1.22431 19.3951 1.22431C19.2984 1.22431 19.2016 1.22431 19.0727 1.25656C19.0404 1.19207 18.976 1.15983 18.9437 1.09534C18.2989 0.386007 17.4605 0.0635808 16.4611 0.0958233C14.5265 0.160308 12.5919 1.54674 11.0443 4.02942C9.94806 5.77052 9.10976 7.96301 8.88406 9.67187C6.65931 10.349 5.11168 10.8326 5.07944 10.8648C3.95094 11.2195 3.91869 11.2518 3.78973 12.3158C3.69301 13.1218 0.726685 35.8206 0.726685 35.8206L25.102 40.0444V4.73875C24.9087 4.73875 24.8119 4.77099 24.7475 4.77099ZM19.1049 6.51209C17.8152 6.89901 16.3966 7.35041 15.0102 7.76955C15.397 6.25415 16.1708 4.73875 17.0737 3.73923C17.4284 3.38456 17.912 2.96542 18.4601 2.70747C19.0083 3.8682 19.1372 5.44809 19.1049 6.51209ZM16.4611 1.41777C16.9125 1.41777 17.2993 1.5145 17.6217 1.70796C17.106 1.96589 16.5901 2.38504 16.1064 2.86869C14.8812 4.19063 13.9461 6.25415 13.5592 8.22095C12.3985 8.57563 11.2378 8.93028 10.1738 9.25271C10.8831 6.15742 13.4947 1.48226 16.4611 1.41777ZM12.7209 19.1512C12.8499 21.2147 18.2989 21.6661 18.6213 26.5348C18.8471 30.3715 16.5901 32.9832 13.3335 33.1767C9.39994 33.4346 7.23968 31.1132 7.23968 31.1132L8.07799 27.5665C8.07799 27.5665 10.2382 29.2109 11.9793 29.082C13.1078 29.0174 13.527 28.0824 13.4948 27.4376C13.3335 24.7292 8.88406 24.8904 8.59387 20.4409C8.33593 16.7007 10.7864 12.9284 16.2031 12.5737C18.2989 12.4447 19.3628 12.9606 19.3628 12.9606L18.1377 17.6036C18.1377 17.6036 16.7513 16.9587 15.1069 17.0877C12.7209 17.2489 12.6887 18.7642 12.7209 19.1512ZM20.3947 6.12518C20.3947 5.15791 20.2657 3.77148 19.8143 2.61074C21.2974 2.90093 22.0068 4.5453 22.3292 5.54482C21.7488 5.70604 21.1039 5.89949 20.3947 6.12518Z" fill="white"/>
<path d="M25.8403 39.9772L35.9646 37.4623C35.9646 37.4623 31.6118 8.02476 31.5795 7.8313C31.5472 7.63784 31.386 7.50887 31.2248 7.50887C31.0636 7.50887 28.2263 7.44439 28.2263 7.44439C28.2263 7.44439 26.4852 5.76777 25.8403 5.12292V39.9772Z" fill="white"/>
</g>
</g>
<defs>
<clipPath id="clip0_2727_6238">
<rect width="144.662" height="41.7294" fill="white" transform="translate(-0.000732422)"/>
</clipPath>
</defs>
</svg>
