<svg width="100" height="42" viewBox="0 0 100 42" fill="none" xmlns="http://www.w3.org/2000/svg">
<g clip-path="url(#clip0_2727_6224)">
<mask id="mask0_2727_6224" style="mask-type:luminance" maskUnits="userSpaceOnUse" x="0" y="0" width="100" height="42">
<path d="M99.3524 0.00109863H0.000366211V41.3426H99.3524V0.00109863Z" fill="white"/>
</mask>
<g mask="url(#mask0_2727_6224)">
<path fill-rule="evenodd" clip-rule="evenodd" d="M99.3512 21.3608C99.3512 14.2958 95.929 8.72107 89.3882 8.72107C82.82 8.72107 78.8459 14.2958 78.8459 21.3056C78.8459 29.6126 83.5378 33.8074 90.2714 33.8074C93.5555 33.8074 96.0393 33.0623 97.9161 32.0135V26.494C96.0393 27.4323 93.8868 28.0119 91.1547 28.0119C88.4776 28.0119 86.1041 27.0736 85.8006 23.817H99.2961C99.2961 23.4582 99.3512 22.0232 99.3512 21.3608ZM85.7181 18.739C85.7181 15.6205 87.6222 14.3234 89.3609 14.3234C91.0444 14.3234 92.8382 15.6205 92.8382 18.739H85.7181Z" fill="white"/>
<path fill-rule="evenodd" clip-rule="evenodd" d="M68.1949 8.72107C65.49 8.72107 63.7514 9.99054 62.7857 10.8737L62.427 9.16259H56.3551V41.3416L63.2546 39.879L63.2824 32.0688C64.2759 32.7863 65.7384 33.8074 68.1671 33.8074C73.1073 33.8074 77.6055 29.8334 77.6055 21.0848C77.5782 13.0815 73.0244 8.72107 68.1949 8.72107ZM66.5387 27.7359C64.9108 27.7359 63.9446 27.1564 63.2824 26.4388L63.2546 16.2C63.9724 15.3997 64.9659 14.8478 66.5387 14.8478C69.0503 14.8478 70.789 17.6628 70.789 21.278C70.789 24.9762 69.0781 27.7359 66.5387 27.7359Z" fill="white"/>
<path fill-rule="evenodd" clip-rule="evenodd" d="M46.8599 7.09374L53.787 5.60346V0.00109863L46.8599 1.46378V7.09374Z" fill="white"/>
<path d="M53.787 9.19104H46.8599V33.3391H53.787V9.19104Z" fill="white"/>
<path fill-rule="evenodd" clip-rule="evenodd" d="M39.4375 11.2306L38.9959 9.18835H33.0348V33.3364H39.9342V16.9709C41.5625 14.8459 44.3223 15.2323 45.1778 15.5359V9.18835C44.2947 8.85716 41.0658 8.25002 39.4375 11.2306Z" fill="white"/>
<path fill-rule="evenodd" clip-rule="evenodd" d="M25.6378 3.2002L18.904 4.63528L18.8763 26.7411C18.8763 30.8256 21.9397 33.8337 26.0242 33.8337C28.2872 33.8337 29.9431 33.4198 30.8538 32.923V27.3207C29.9706 27.6794 25.6102 28.9489 25.6102 24.8645V15.0672H30.8538V9.18892H25.6102L25.6378 3.2002Z" fill="white"/>
<path fill-rule="evenodd" clip-rule="evenodd" d="M6.98263 16.2C6.98263 15.1237 7.86572 14.7098 9.32843 14.7098C11.4258 14.7098 14.0752 15.3445 16.1727 16.476V9.99054C13.882 9.07983 11.619 8.72107 9.32843 8.72107C3.72607 8.72107 0.000366211 11.6464 0.000366211 16.5312C0.000366211 24.1482 10.4875 22.9339 10.4875 26.2181C10.4875 27.4875 9.38362 27.9015 7.83815 27.9015C5.54754 27.9015 2.62216 26.9632 0.303941 25.6937V32.2619C2.87054 33.3659 5.46473 33.835 7.83815 33.835C13.5785 33.835 17.525 30.9925 17.525 26.0524C17.4973 17.8283 6.98263 19.291 6.98263 16.2Z" fill="white"/>
</g>
</g>
<defs>
<clipPath id="clip0_2727_6224">
<rect width="99.352" height="41.7278" fill="white"/>
</clipPath>
</defs>
</svg>
